<?xml version="1.0" encoding="UTF-8"?><svg id="Layer_1" xmlns="http://www.w3.org/2000/svg" xmlns:xlink="http://www.w3.org/1999/xlink" viewBox="0 0 2742.9 479.08"><defs><style>.cls-1{fill:url(#linear-gradient-2);}.cls-2{fill:url(#linear-gradient-6);}.cls-3{fill:#5d7589;}.cls-4{fill:url(#linear-gradient-5);}.cls-5{fill:url(#linear-gradient-7);}.cls-6{fill:url(#linear-gradient-9);}.cls-7{fill:url(#linear-gradient-3);}.cls-8{fill:url(#linear-gradient);}.cls-9{fill:url(#linear-gradient-4);}.cls-10{fill:url(#linear-gradient-8);}</style><linearGradient id="linear-gradient" x1="1079.63" y1="-17.83" x2="1120.82" y2="547.02" gradientUnits="userSpaceOnUse"><stop offset="0" stop-color="#3d4e5c"/><stop offset=".12" stop-color="#607787"/><stop offset=".3" stop-color="#92b1c3"/><stop offset=".43" stop-color="#b1d5e9"/><stop offset=".5" stop-color="#bde3f8"/><stop offset=".58" stop-color="#9abbce"/><stop offset=".67" stop-color="#7893a5"/><stop offset=".76" stop-color="#5e7484"/><stop offset=".85" stop-color="#4b5e6d"/><stop offset=".93" stop-color="#3f515f"/><stop offset="1" stop-color="#3c4d5b"/></linearGradient><linearGradient id="linear-gradient-2" x1="506.82" y1="-336.09" x2="1702.03" y2="859.11" gradientUnits="userSpaceOnUse"><stop offset="0" stop-color="#b3bcc6"/><stop offset=".5" stop-color="#e7f0f7"/><stop offset=".83" stop-color="#c1cad3"/><stop offset="1" stop-color="#b3bcc6"/></linearGradient><linearGradient id="linear-gradient-3" x1="2243.99" y1="3.04" x2="2713.83" y2="472.87" xlink:href="#linear-gradient-2"/><linearGradient id="linear-gradient-4" x1="2226.24" y1="144.52" x2="2332.59" y2="38.16" gradientUnits="userSpaceOnUse"><stop offset=".2" stop-color="#c8cfd8"/><stop offset=".29" stop-color="#bec5cf"/><stop offset=".5" stop-color="#acb3bf"/><stop offset=".58" stop-color="#b3bac5"/><stop offset=".8" stop-color="#c6ccd6"/></linearGradient><linearGradient id="linear-gradient-5" x1="2732.41" y1="341.86" x2="2625.32" y2="448.96" gradientUnits="userSpaceOnUse"><stop offset=".2" stop-color="#c2c8d2"/><stop offset=".24" stop-color="#bec4ce"/><stop offset=".5" stop-color="#acb3bf"/><stop offset=".55" stop-color="#b0b7c3"/><stop offset=".8" stop-color="#c3c9d3"/></linearGradient><linearGradient id="linear-gradient-6" x1="2588.12" y1="4.54" x2="2764.68" y2="181.09" gradientUnits="userSpaceOnUse"><stop offset=".2" stop-color="#dce4ec"/><stop offset=".37" stop-color="#bec5cf"/><stop offset=".5" stop-color="#acb3bf"/><stop offset=".66" stop-color="#c6cdd7"/><stop offset=".8" stop-color="#d9e0e8"/></linearGradient><linearGradient id="linear-gradient-7" x1="2216.81" y1="336.74" x2="2350.66" y2="470.59" gradientUnits="userSpaceOnUse"><stop offset=".2" stop-color="#dfe6ee"/><stop offset=".37" stop-color="#bec5cf"/><stop offset=".5" stop-color="#acb3bf"/><stop offset=".67" stop-color="#c8cfd9"/><stop offset=".8" stop-color="#dbe2ea"/></linearGradient><linearGradient id="linear-gradient-8" x1="2376.33" y1="12.3" x2="2584.25" y2="478.18" xlink:href="#linear-gradient"/><linearGradient id="linear-gradient-9" x1="2426.93" y1="38.15" x2="2526.23" y2="433.65" gradientUnits="userSpaceOnUse"><stop offset="0" stop-color="#e9ecf1"/><stop offset=".08" stop-color="#eff1f5"/><stop offset=".27" stop-color="#fbfbfc"/><stop offset=".47" stop-color="#fff"/><stop offset=".72" stop-color="#f8f8fa"/><stop offset="1" stop-color="#e9ebef"/></linearGradient></defs><path class="cls-8" d="M1778.64,79.54c35.71,0,68.62,9.63,95.69,27.91,12.58-14.97,31.13-23.7,50.95-23.7h82.22c95.44,0,154.72,52.77,154.72,137.71,0,29.55-7.97,56.87-23.11,79.36l25.48,45.04c11.62,20.54,11.45,45.97-.44,66.37-11.89,20.39-33.94,33.05-57.55,33.05h-57.74c-12.7,0-25.28-3.73-35.99-10.58-10.71,6.85-23.29,10.58-35.98,10.58h-51.61c-19.96,0-38.57-8.81-51.13-23.89-27.03,18.4-59.89,28.09-95.52,28.09-46.92,0-88.67-16.8-119.07-47.6-9.53,25.52-34.26,43.4-62.44,43.4h-51.61c-7.51,0-14.89-1.26-21.98-3.75-7.08,2.49-14.43,3.75-21.87,3.75h-54.62c-18.71,0-36.37-7.83-48.87-21.34-12.51,13.5-30.17,21.34-48.87,21.34h-52.77c-1.26,0-2.52-.06-3.83-.15-1.51,.1-3.03,.15-4.53,.15h-141.73c-15.53,0-30.82-5.62-42.75-15.59-23.61,12.96-51.88,19.79-82.15,19.79-28.13,0-56.43-6.45-82.18-18.69-11.75,9.38-26.3,14.49-41.48,14.49h-52.89c-13.79,0-27.25-4.32-38.48-12.26-11.24,7.94-24.69,12.26-38.47,12.26h-49.18c-3.6,0-7.27-.32-10.94-.94-3.67,.62-7.36,.94-11,.94h-54.62c-18.71,0-36.37-7.84-48.88-21.34-12.51,13.51-30.17,21.34-48.88,21.34h-53.02s-.05,0-.05,0h-58.78c-12.7,0-25.28-3.73-35.99-10.58-10.71,6.85-23.29,10.58-35.98,10.58h-51.61c-18.89,0-36.67-7.99-49.22-21.75-12.54,13.77-30.32,21.75-49.22,21.75h-51.61c-36.73,0-66.62-29.89-66.62-66.62v-118.48c-34.98-1.97-62.84-31.05-62.84-66.51v-43.29c0-36.73,29.89-66.62,66.62-66.62h177.28c6.04,0,12.02,.81,17.8,2.42,5.78-1.61,11.76-2.42,17.8-2.42h82.22c46.79,0,85.43,12.66,112.57,36.75,11.14-22.35,33.93-36.75,59.57-36.75h61.75c17.86,0,34.51,6.9,46.87,19.19,12.41-12.29,29.03-19.19,46.76-19.19h52.89c13.79,0,27.24,4.32,38.48,12.26,11.24-7.94,24.69-12.26,38.47-12.26h49.18c17.4,0,33.93,6.72,46.25,18.64,24.39-14.96,53.05-22.84,83.31-22.84,26.95,0,53.7,6.41,77.7,18.57,11.72-9.29,26.19-14.36,41.31-14.36h51.61c36.73,0,66.62,29.89,66.62,66.62v107.35l39.98-127.32c8.77-27.9,34.32-46.65,63.56-46.65h61.75c9.21,0,18.07,1.83,26.38,5.43,8.31-3.61,17.15-5.43,26.33-5.43h177.28c14.61,0,28.74,4.8,40.3,13.6,23.46-11.82,49.8-17.8,78.38-17.8m0-29.61c-27.19,0-52.79,4.72-76.33,14.06-13.13-6.42-27.69-9.86-42.35-9.86h-177.28c-9.01,0-17.83,1.23-26.33,3.66-8.52-2.43-17.35-3.66-26.38-3.66h-61.75c-36.32,0-68.69,20.02-85.11,51.26-16.17-30.46-48.23-51.26-85.06-51.26h-51.61c-15.19,0-30.17,3.64-43.6,10.45-23.9-9.62-49.66-14.66-75.41-14.66-28.44,0-55.96,6-80.67,17.49-14.65-8.66-31.44-13.28-48.9-13.28h-49.18c-13.37,0-26.4,2.74-38.47,8.03-12.07-5.29-25.1-8.03-38.48-8.03h-52.89c-16.63,0-32.62,4.19-46.75,12.07-14.13-7.88-30.17-12.07-46.88-12.07h-61.75c-18.04,0-35.62,5-50.84,14.45-5.3,3.29-10.24,7.08-14.77,11.3-29.34-16.92-65.57-25.75-106.52-25.75h-82.22c-5.99,0-11.95,.56-17.8,1.66-5.85-1.1-11.81-1.66-17.8-1.66H96.23C43.17,54.14,0,97.31,0,150.37v43.29c0,41.2,26.01,76.65,62.84,90.28v94.72c0,53.06,43.17,96.23,96.23,96.23h51.61c17.46,0,34.46-4.79,49.22-13.57,14.76,8.78,31.76,13.57,49.22,13.57h51.61c12.38,0,24.57-2.39,35.98-7,11.4,4.61,23.6,7,35.99,7h111.85c17.3,0,34.19-4.71,48.87-13.36,14.68,8.64,31.57,13.36,48.88,13.36h54.62c3.64,0,7.33-.22,11-.65,3.66,.43,7.32,.65,10.94,.65h49.18c13.37,0,26.4-2.74,38.47-8.03,12.07,5.29,25.1,8.03,38.48,8.03h52.89c15.41,0,30.6-3.74,44.17-10.74,25.42,9.81,52.6,14.94,79.5,14.94,28.43,0,55.69-5.31,79.85-15.46,13.83,7.34,29.31,11.26,45.05,11.26h141.73c1.47,0,2.96-.03,4.45-.1,1.37,.07,2.64,.1,3.91,.1h52.77c17.3,0,34.19-4.71,48.87-13.35,14.68,8.64,31.57,13.35,48.87,13.35h54.62c7.38,0,14.71-.85,21.88-2.55,7.19,1.69,14.54,2.55,21.97,2.55h51.61c26.37,0,51.13-10.97,68.93-29.21,11.13,7.58,23.1,13.94,35.84,19.04,23.81,9.54,49.63,14.37,76.74,14.37,33.03,0,64.36-7.29,91.88-21.24,15.89,11,34.91,17.04,54.76,17.04h51.61c12.39,0,24.58-2.39,35.98-7,11.4,4.61,23.6,7,35.99,7h57.74c34.09,0,65.94-18.29,83.12-47.74,17.18-29.46,17.42-66.19,.64-95.86l-17.09-30.21c12.19-23.83,18.56-50.99,18.56-79.61,0-50.37-17.81-92.84-51.5-122.82-32.7-29.11-78.64-44.49-132.84-44.49h-82.22c-19.75,0-38.7,6-54.57,16.94-27.57-13.89-58.97-21.15-92.07-21.15h0Z"/><path class="cls-1" d="M1778.64,436.52c-54.43,0-100-24.06-127.85-65.98v8.12c0,29.59-24.07,53.67-53.67,53.67h-51.61c-7.57,0-15.07-1.62-21.98-4.73-6.91,3.11-14.39,4.73-21.87,4.73h-54.62c-21.33,0-40.3-12.57-48.87-31.48-8.57,18.91-27.55,31.48-48.87,31.48h-52.77c-1.28,0-2.54-.08-3.82-.19-1.5,.13-3.01,.19-4.54,.19h-141.73c-15.82,0-30.72-7.04-40.81-18.87-23.28,15.13-52.13,23.07-84.09,23.07-29.24,0-58.24-7.36-84.36-21.34-10.07,10.86-24.24,17.14-39.31,17.14h-52.89c-14.63,0-28.5-6.02-38.48-16.27-9.99,10.25-23.85,16.27-38.48,16.27h-49.18c-3.59,0-7.26-.39-10.94-1.17-3.66,.78-7.36,1.17-11,1.17h-54.62c-21.33,0-40.31-12.57-48.88-31.5-8.57,18.92-27.55,31.5-48.88,31.5h-52.77c-.15,0-.43-.01-.69-.03-.25,.01-.5,.03-.64,.03h-57.75c-13.39,0-26.22-5.05-35.98-13.86-9.78,8.82-22.61,13.86-35.98,13.86h-51.61c-21.99,0-40.94-13.3-49.22-32.27-8.28,18.98-27.23,32.27-49.22,32.27h-51.61c-29.59,0-53.67-24.08-53.67-53.67V247.32h-9.17c-29.59,0-53.67-24.08-53.67-53.67v-43.29c0-29.59,24.08-53.67,53.67-53.67h177.28c6.11,0,12.08,1.02,17.8,3.05,5.73-2.03,11.7-3.05,17.8-3.05h82.22c52.57,0,93.51,16.92,117.63,48.11l3.31-10.53c7.06-22.48,27.64-37.59,51.2-37.59h61.75c19.81,0,37.5,10.67,46.83,27.42,9.21-16.35,26.74-27.42,46.8-27.42h52.89c14.63,0,28.49,6.02,38.48,16.27,9.99-10.25,23.85-16.27,38.47-16.27h49.18c17.81,0,34.03,8.67,43.93,22.83,23.89-17.51,53.87-27.04,85.64-27.04,28.08,0,55.44,7.38,79.66,21.41,10.07-10.9,24.24-17.2,39.35-17.2h51.61c29.59,0,53.67,24.08,53.67,53.67v131.33h19l46.3-147.41c7.07-22.48,27.64-37.59,51.2-37.59h61.75c9.35,0,18.35,2.38,26.39,6.94,8.03-4.56,17.02-6.94,26.33-6.94h177.28c14.62,0,28.49,5.98,38.52,16.33,23.52-13.64,50.44-20.54,80.16-20.54,38.18,0,72.06,11.52,98.86,33.46,8.97-17.57,27.22-29.25,47.78-29.25h82.22c87.45,0,141.77,47.8,141.77,124.75,0,30.01-8.8,57-25.52,78.51l29.57,52.26c9.36,16.55,9.22,37.04-.35,53.47-9.59,16.42-27.35,26.62-46.36,26.62h-57.74c-13.39,0-26.22-5.05-35.99-13.86-9.77,8.82-22.6,13.86-35.98,13.86h-51.61c-20.73,0-39.02-11.79-47.92-29.53-26.79,22.12-60.62,33.73-98.72,33.73Zm-137.09-114.55c3.85,0,7.39,2.42,8.71,6.16,20.28,57.13,67.07,89.89,128.38,89.89,38.37,0,71.7-13.18,96.37-38.12,2.43-2.46,6.03-3.36,9.34-2.32,3.3,1.03,5.75,3.82,6.35,7.23,2.96,16.81,17.5,29.02,34.58,29.02h51.61c11.24,0,21.89-5.44,28.5-14.55,1.73-2.4,4.53-3.82,7.49-3.82h0c2.96,0,5.75,1.42,7.49,3.83,6.59,9.11,17.24,14.54,28.49,14.54h57.74c12.46,0,24.09-6.68,30.37-17.44,6.28-10.76,6.37-24.19,.24-35.03l-32.7-57.79c-1.94-3.42-1.5-7.68,1.08-10.64,16.46-18.85,25.16-43.56,25.16-71.45,0-67.52-44.93-106.25-123.27-106.25h-82.22c-16.91,0-31.43,12.06-34.53,28.68-.63,3.37-3.07,6.12-6.35,7.14-3.27,1.01-6.85,.14-9.28-2.3-24.68-24.68-58.04-37.73-96.48-37.73-29.07,0-55,7.36-77.07,21.87-4.19,2.76-9.83,1.67-12.69-2.47-6.59-9.52-17.41-15.2-28.93-15.2h-177.28c-7.52,0-14.73,2.39-20.83,6.9-3.27,2.41-7.73,2.41-10.99,0-6.1-4.51-13.32-6.89-20.88-6.89h-61.75c-15.43,0-28.92,9.9-33.55,24.63l-48.33,153.89c-1.21,3.86-4.79,6.48-8.83,6.48h-35.05c-5.11,0-9.25-4.14-9.25-9.25V150.37c0-19.39-15.77-35.16-35.16-35.16h-51.61c-11.89,0-22.89,5.97-29.43,15.97-2.8,4.27-8.52,5.48-12.8,2.68-22.92-14.95-49.47-22.86-76.78-22.86-31.36,0-60.6,10.51-82.34,29.59-2.25,1.97-5.31,2.73-8.23,2.05-2.91-.69-5.31-2.74-6.44-5.52-5.42-13.32-18.2-21.92-32.55-21.92h-49.18c-12.52,0-24.19,6.74-30.47,17.6-1.65,2.86-4.71,4.62-8.01,4.62h0c-3.3,0-6.36-1.77-8.01-4.63-6.25-10.85-17.92-17.59-30.45-17.59h-52.89c-19.39,0-35.16,15.77-35.16,35.16v8.5c0,4.57-3.34,8.45-7.85,9.14-4.52,.69-8.86-2.01-10.23-6.37l-6.85-21.81c-4.63-14.73-18.11-24.62-33.55-24.62h-61.75c-15.44,0-28.92,9.9-33.55,24.62l-9.3,29.61c-1.13,3.6-4.33,6.15-8.09,6.45-3.76,.26-7.33-1.71-9.01-5.09-17.93-35.86-57.77-55.6-112.19-55.6h-82.22c-4.86,0-9.6,1-14.09,2.96-2.37,1.04-5.07,1.04-7.43,0-4.47-1.96-9.21-2.96-14.08-2.96H96.23c-19.39,0-35.16,15.77-35.16,35.16v43.29c0,19.39,15.77,35.16,35.16,35.16h18.42c5.11,0,9.25,4.14,9.25,9.25v140.59c0,19.39,15.77,35.16,35.16,35.16h51.61c19.39,0,35.16-15.77,35.16-35.16V238.07c0-5.11,4.14-9.25,9.25-9.25h9.61c5.11,0,9.25,4.14,9.25,9.25v140.59c0,19.39,15.77,35.16,35.16,35.16h51.61c11.23,0,21.89-5.44,28.49-14.56,1.74-2.4,4.53-3.82,7.49-3.82h0c2.97,0,5.75,1.43,7.49,3.83,6.59,9.11,17.24,14.54,28.48,14.54h57.75c.1,0,.77,0,.77-.04l.95,.05h52.38c16.02-.01,30.01-10.84,34.03-26.34l5.48-21.12c1.06-4.08,4.74-6.93,8.96-6.93h.84c4.22,0,7.9,2.86,8.96,6.94l5.45,21.08c4.01,15.52,18.01,26.36,34.04,26.36h54.62c2.86,0,5.79-.38,8.7-1.12,1.49-.38,3.07-.39,4.57,0,2.96,.75,5.87,1.13,8.67,1.13h49.18c12.52,0,24.19-6.74,30.47-17.6,1.66-2.86,4.71-4.62,8.01-4.62h0c3.31,0,6.36,1.77,8.01,4.63,6.25,10.85,17.92,17.59,30.45,17.59h52.89c11.78,0,22.73-5.87,29.28-15.7,2.73-4.1,8.18-5.35,12.43-2.83,25.04,14.87,53.38,22.73,81.97,22.73,31.55,0,59.45-8.57,80.69-24.79,2.13-1.62,4.85-2.24,7.46-1.72,2.62,.53,4.88,2.17,6.2,4.49,6.25,10.99,17.96,17.82,30.56,17.82h141.73c1.21,0,2.39-.06,3.57-.18,.57-.06,1.15-.06,1.75-.01,1.1,.09,2.06,.19,3.04,.19h52.77c16.02,0,30.01-10.83,34.03-26.33l5.48-21.13c1.06-4.08,4.74-6.93,8.96-6.93h.84c4.22,0,7.91,2.86,8.96,6.94l5.44,21.07c4.01,15.53,18.01,26.37,34.05,26.37h54.62c5.98,0,11.96-1.6,17.31-4.64,2.84-1.61,6.32-1.61,9.16,.01,5.3,3.03,11.31,4.63,17.38,4.63h51.61c19.39,0,35.16-15.77,35.16-35.16v-47.43c0-4.5,3.25-8.35,7.68-9.12,.53-.09,1.06-.13,1.58-.13Z"/><path class="cls-7" d="M2680.11,451.6h-405.88c-24.17,0-43.76-23.53-43.76-52.57V73.39c0-29.03,19.59-52.57,43.76-52.57h405.88c24.17,0,43.76,23.54,43.76,52.57V399.03c0,29.03-19.59,52.57-43.76,52.57ZM2279.05,50.4c-13.23,0-23.95,12.88-23.95,28.78V393.24c0,15.89,10.72,28.78,23.95,28.78h396.24c13.23,0,23.95-12.88,23.95-28.78V79.18c0-15.89-10.72-28.78-23.95-28.78h-396.24Z"/><g><path class="cls-9" d="M2255.1,207.19V79.18c0-15.89,10.72-28.78,23.95-28.78h91.36V20.83h-96.17c-24.17,0-43.76,23.54-43.76,52.57V207.19h24.62Z"/><path class="cls-4" d="M2699.24,301.76v91.48c0,15.89-10.72,28.78-23.95,28.78h-91.36v29.58h96.17c24.17,0,43.76-23.53,43.76-52.57v-97.27h-24.62Z"/><path class="cls-2" d="M2583.93,50.4h91.36c13.23,0,23.95,12.88,23.95,28.78V207.19h24.62V73.39c0-29.03-19.59-52.57-43.76-52.57h-96.17v29.58Z"/><path class="cls-5" d="M2370.41,422.02h-91.36c-13.23,0-23.95-12.88-23.95-28.78v-91.48h-24.62v97.27c0,29.03,19.59,52.57,43.76,52.57h96.17v-29.58Z"/></g><path class="cls-10" d="M2686.5,476.5h-418.66c-31.1,0-56.4-30.39-56.4-67.75V67.75c0-37.36,25.3-67.75,56.4-67.75h418.66c31.1,0,56.4,30.39,56.4,67.75V408.75c0,37.36-25.3,67.75-56.4,67.75ZM2274.86,34.45c-19.16,0-34.75,18.73-34.75,41.74V400.31c0,23.02,15.59,41.74,34.75,41.74h404.61c19.16,0,34.75-18.73,34.75-41.74V76.19c0-23.02-15.59-41.74-34.75-41.74h-404.61Z"/><path class="cls-6" d="M2678.53,445.92h-402.72c-21.49,0-38.91-20.93-38.91-46.74V77.32c0-25.82,17.42-46.74,38.91-46.74h402.72c21.49,0,38.91,20.93,38.91,46.74V399.17c0,25.82-17.42,46.74-38.91,46.74ZM2276.82,37.21c-18.97,0-34.41,18.54-34.41,41.34V397.95c0,22.79,15.44,41.34,34.41,41.34h400.69c18.97,0,34.41-18.54,34.41-41.34V78.54c0-22.79-15.44-41.34-34.41-41.34h-400.69Z"/><g><path class="cls-3" d="M2274.44,106.26l11.1-1.22c.27,2.26,.98,3.93,2.12,5.02,1.14,1.09,2.65,1.63,4.53,1.63,2.37,0,4.38-1.09,6.04-3.27,1.66-2.18,2.72-6.7,3.18-13.55-2.89,3.35-6.49,5.02-10.82,5.02-4.71,0-8.77-1.82-12.19-5.45-3.42-3.63-5.12-8.36-5.12-14.19s1.8-10.96,5.41-14.68c3.61-3.72,8.2-5.57,13.78-5.57,6.07,0,11.05,2.35,14.94,7.04,3.89,4.69,5.84,12.42,5.84,23.17s-2.03,18.83-6.08,23.68c-4.06,4.84-9.34,7.27-15.84,7.27-4.68,0-8.46-1.25-11.35-3.74-2.89-2.49-4.74-6.21-5.55-11.17Zm25.96-25.07c0-3.7-.85-6.57-2.55-8.61-1.7-2.04-3.67-3.06-5.9-3.06s-3.89,.84-5.29,2.51c-1.4,1.67-2.1,4.42-2.1,8.23s.76,6.7,2.29,8.51c1.52,1.81,3.43,2.71,5.72,2.71s4.06-.87,5.57-2.61c1.51-1.74,2.27-4.3,2.27-7.68Z"/><path class="cls-3" d="M2343.19,120.1v-12.04h-24.5v-10.04l25.96-38.01h9.63v37.97h7.43v10.08h-7.43v12.04h-11.1Zm0-22.13v-20.45l-13.76,20.45h13.76Z"/></g><g><path class="cls-3" d="M2340.39,308.88V136.32h55.91c21.19,0,35,.86,41.43,2.59,9.89,2.59,18.17,8.22,24.84,16.89,6.67,8.67,10.01,19.88,10.01,33.61,0,10.59-1.92,19.5-5.77,26.72-3.85,7.22-8.73,12.89-14.66,17.01-5.93,4.12-11.95,6.85-18.07,8.18-8.32,1.65-20.36,2.47-36.14,2.47h-22.72v65.1h-34.84Zm34.84-143.37v48.97h19.07c13.73,0,22.91-.9,27.54-2.71,4.63-1.8,8.26-4.63,10.89-8.48,2.63-3.84,3.94-8.32,3.94-13.42,0-6.28-1.84-11.46-5.53-15.54-3.69-4.08-8.36-6.63-14.01-7.65-4.16-.78-12.52-1.18-25.07-1.18h-16.83Z"/><path class="cls-3" d="M2583.23,308.88v-18.72c-4.55,6.67-10.54,11.93-17.95,15.77-7.42,3.84-15.24,5.77-23.48,5.77s-15.93-1.84-22.6-5.53c-6.67-3.69-11.5-8.87-14.48-15.54-2.98-6.67-4.47-15.89-4.47-27.66v-79.1h33.08v57.44c0,17.58,.61,28.35,1.82,32.31,1.22,3.96,3.43,7.1,6.65,9.42,3.22,2.32,7.3,3.47,12.24,3.47,5.65,0,10.71-1.55,15.18-4.65,4.47-3.1,7.53-6.94,9.18-11.54,1.65-4.59,2.47-15.83,2.47-33.72v-52.74h33.08v125.01h-30.72Z"/></g><g><polygon class="cls-3" points="96.23 193.65 159.07 193.65 159.07 378.65 210.68 378.65 210.68 193.65 273.51 193.65 273.51 150.37 96.23 150.37 96.23 193.65"/><path class="cls-3" d="M479.43,221.45c0-54.27-39.69-71.09-88.11-71.09h-82.22v228.28h51.61v-82.15h28.38l43.58,82.15h57.75l-51.67-91.34c24.38-11.02,40.67-32.3,40.67-65.86Zm-118.71-30.11h26.4c27.15,0,41.73,7.54,41.73,30.11s-14.58,34.07-41.73,34.07h-26.4v-64.18Z"/><path class="cls-3" d="M563.46,150.37l-71.7,228.28h52.77l14.11-54.38h69.6l14.05,54.38h54.62l-71.7-228.28h-61.75Zm5.58,133.8l5.48-21.13c6.34-22.83,12.44-49.53,17.96-73.63h1.4c6.1,23.82,12.19,50.8,18.54,73.63l5.46,21.13h-48.84Z"/><path class="cls-3" d="M848.68,231.01c0,26.91,4.16,58.89,6.6,83.04h-1.4l-22.58-50.15-59.56-113.54h-52.89v228.28h49.18v-81.02c0-26.91-4.16-57.49-6.59-82.67h1.4l22.58,49.86,59.57,113.82h52.89V150.37h-49.18v80.65Z"/><path class="cls-3" d="M1062.26,250l-29.09-11.78c-19.93-7.93-34.86-13.02-34.86-27.02,0-13.06,11.33-20.47,29.12-20.47s32.35,6.35,47.38,17.88l26.05-32.52c-19.66-19.56-47.15-29.92-73.44-29.92-47.51,0-81.31,30.21-81.31,68.04,0,33.17,22.42,52.6,46.07,62.23l29.67,12.65c19.94,8.2,32.92,12.81,32.92,27.18,0,13.55-10.54,22.03-32.08,22.03-18.79,0-39.84-9.72-56.08-23.85l-29.64,35.41c23.28,21.76,54.85,33.01,84.56,33.01,54.4,0,86.01-32.84,86.01-70.76,0-32.26-17.41-50.83-45.28-62.1Z"/><polygon class="cls-3" points="1198.05 150.37 1146.44 150.37 1146.44 378.65 1288.16 378.65 1288.16 335.37 1198.05 335.37 1198.05 150.37"/><path class="cls-3" d="M1368.22,150.37l-71.7,228.28h52.76l14.11-54.38h69.6l14.05,54.38h54.62l-71.7-228.28h-61.75Zm5.58,133.8l5.48-21.13c6.34-22.83,12.44-49.53,17.96-73.63h1.4c6.1,23.82,12.19,50.8,18.54,73.63l5.46,21.13h-48.84Z"/><polygon class="cls-3" points="1482.68 193.65 1545.51 193.65 1545.51 378.65 1597.12 378.65 1597.12 193.65 1659.95 193.65 1659.95 150.37 1482.68 150.37 1482.68 193.65"/><path class="cls-3" d="M1778.64,146.16c-61.57,0-103.68,42.77-103.68,117.36s42.11,119.34,103.68,119.34,103.68-44.75,103.68-119.34-42.11-117.36-103.68-117.36Zm0,192.13c-31.14,0-50.8-29-50.8-74.77s19.66-72.79,50.8-72.79,50.79,27.02,50.79,72.79-19.65,74.77-50.79,74.77Z"/><path class="cls-3" d="M2106.61,378.65l-51.68-91.34c24.38-11.01,40.67-32.3,40.67-65.86,0-54.27-39.69-71.09-88.1-71.09h-82.22v228.28h51.61v-82.15h28.38l43.59,82.15h57.75Zm-129.72-187.31h26.41c27.14,0,41.72,7.54,41.72,30.11s-14.58,34.07-41.72,34.07h-26.41v-64.18Z"/></g><g><path class="cls-3" d="M2390.34,368.04c0-12.56,3.45-22.83,9.42-32.6l6.57,2.74c-5.24,9.22-7.53,19.74-7.53,29.86s2.29,20.64,7.53,29.86l-6.57,2.74c-5.97-9.77-9.42-20.04-9.42-32.6Z"/><path class="cls-3" d="M2412.4,381.86c11.53-10.9,19.65-18.64,19.65-25.12,0-4.38-2.43-6.8-6.42-6.8-3.22,0-5.78,2.22-8.05,4.61l-5.68-5.66c4.46-4.77,8.69-7.18,15.17-7.18,8.93,0,15.02,5.7,15.02,14.44,0,7.63-7.12,15.76-14.54,23.43,2.33-.26,5.49-.52,7.59-.52h9.12v8.82h-31.86v-6.01Z"/><path class="cls-3" d="M2468.38,361.68c0-2.88,.26-7.27,.4-10.15h-.29c-1.14,2.56-2.42,5.07-3.71,7.66l-5.95,9.89h24.54v7.99h-34.59v-7.25l16.54-27.24h12.83v45.3h-9.78v-26.2Z"/><path class="cls-3" d="M2506.04,361.68c0-2.88,.26-7.27,.4-10.15h-.29c-1.14,2.56-2.42,5.07-3.71,7.66l-5.95,9.89h24.54v7.99h-34.59v-7.25l16.54-27.24h12.83v45.3h-9.78v-26.2Z"/><path class="cls-3" d="M2526.18,397.9c5.24-9.22,7.53-19.74,7.53-29.86s-2.29-20.64-7.53-29.86l6.57-2.74c5.97,9.77,9.42,20.04,9.42,32.6s-3.45,22.83-9.42,32.6l-6.57-2.74Z"/></g></svg>